<svg width="24" height="24" viewBox="0 0 24 24" fill="none" xmlns="http://www.w3.org/2000/svg">
<path fill-rule="evenodd" clip-rule="evenodd" d="M4.41669 1.91669C4.14054 1.91669 3.91669 2.14054 3.91669 2.41669C3.91669 2.69283 4.14054 2.91669 4.41669 2.91669H5.58466V3.25002C5.58466 6.7101 6.8102 9.89378 8.70146 11.5834C6.8102 13.2729 5.58466 16.4566 5.58466 19.9167V20.25H4.41669C4.14054 20.25 3.91669 20.4739 3.91669 20.75C3.91669 21.0262 4.14054 21.25 4.41669 21.25H6.08466H17.7513H19.4167C19.6928 21.25 19.9167 21.0262 19.9167 20.75C19.9167 20.4739 19.6928 20.25 19.4167 20.25H18.2513V19.9167C18.2513 16.4566 17.0258 13.2729 15.1345 11.5834C17.0258 9.89378 18.2513 6.7101 18.2513 3.25002V2.91669H19.4167C19.6928 2.91669 19.9167 2.69283 19.9167 2.41669C19.9167 2.14054 19.6928 1.91669 19.4167 1.91669H17.7513H6.08466H4.41669ZM6.58466 2.91669V3.25002C6.58466 6.82082 7.96883 9.88511 9.79033 11.1753C9.92267 11.2691 10.0013 11.4212 10.0013 11.5834C10.0013 11.7455 9.92267 11.8976 9.79033 11.9914C8.84638 12.66 8.01987 13.8051 7.44259 15.2502H16.3934C15.8161 13.8051 14.9896 12.66 14.0456 11.9914C13.9133 11.8976 13.8347 11.7455 13.8347 11.5834C13.8347 11.4212 13.9133 11.2691 14.0456 11.1753C15.8672 9.88511 17.2513 6.82082 17.2513 3.25002V2.91669H6.58466ZM17.2513 20.25V19.9167C17.2513 18.6053 17.0646 17.3622 16.7381 16.2502H7.09785C6.77135 17.3622 6.58466 18.6053 6.58466 19.9167V20.25H17.2513Z" fill="#708C91"/>
</svg>
