<svg width="24" height="24" viewBox="0 0 24 24" fill="none" xmlns="http://www.w3.org/2000/svg">
<path fill-rule="evenodd" clip-rule="evenodd" d="M12 22C17.5228 22 22 17.5228 22 12C22 6.47715 17.5228 2 12 2C6.47715 2 2 6.47715 2 12C2 17.5228 6.47715 22 12 22ZM14 6.5C14 7.32843 13.3284 8 12.5 8C11.6716 8 11 7.32843 11 6.5C11 5.67157 11.6716 5 12.5 5C13.3284 5 14 5.67157 14 6.5ZM13.0291 11.235C12.9355 11.0478 12.8089 10.89 12.6604 10.7643L12.4698 12.2888C12.3705 13.0829 12.7567 13.8592 13.4499 14.2591C14.2831 14.7398 14.8809 15.5431 15.1021 16.4792L15.4799 18.0776C15.5752 18.4807 15.3257 18.8847 14.9226 18.98C14.5195 19.0752 14.1155 18.8257 14.0202 18.4226L13.6424 16.8242C13.5162 16.2905 13.1753 15.8325 12.7003 15.5584C11.4845 14.857 10.8073 13.4955 10.9814 12.1028L11.1813 10.5032C11.0498 10.5519 10.9226 10.6204 10.8036 10.7096L8.95004 12.0998C8.61867 12.3484 8.14857 12.2812 7.90004 11.9498C7.65152 11.6185 7.71867 11.1484 8.05004 10.8998L9.90364 9.50964C11.3956 8.39067 13.5367 8.89611 14.3707 10.5642C14.5808 10.9844 15.0103 11.2498 15.4802 11.2498H16.25C16.6643 11.2498 17 11.5856 17 11.9998C17 12.4141 16.6643 12.7498 16.25 12.7498H15.4802C14.4422 12.7498 13.4933 12.1634 13.0291 11.235ZM10.2406 14.6782L10.184 14.8762C9.95923 15.663 9.51205 16.3682 8.8962 16.9071L8.00613 17.6859C7.6944 17.9587 7.66282 18.4325 7.93558 18.7442C8.20834 19.0559 8.68216 19.0875 8.99389 18.8148L9.88396 18.0359C10.4961 17.5003 10.9851 16.8431 11.3221 16.11C10.8737 15.6994 10.5087 15.2129 10.2406 14.6782Z" fill="#249E20"/>
</svg>
